HIERARCHY
ROOT Hips
{
	OFFSET -0.001795 -0.223333 0.028219
	CHANNELS 6 Xposition Yposition Zposition Zrotation Yrotation Xrotation 
	JOINT LeftUpLeg
	{
		OFFSET 0.069520 -0.091406 -0.006815
		CHANNELS 3 Zrotation Yrotation Xrotation
		JOINT LeftLeg
		{
			OFFSET 0.034277 -0.375199 -0.004496
			CHANNELS 3 Zrotation Yrotation Xrotation
			JOINT LeftFoot
			{
				OFFSET -0.013596 -0.397961 -0.043693
				CHANNELS 3 Zrotation Yrotation Xrotation
				JOINT LeftToe
				{
					OFFSET 0.026358 -0.055791 0.119288
					CHANNELS 3 Zrotation Yrotation Xrotation
					End Site
					{
						OFFSET 0.000000 0.000000 0.000000
					}
				}
			}
		}
	}
	JOINT RightUpLeg
	{
		OFFSET -0.067670 -0.090522 -0.004320
		CHANNELS 3 Zrotation Yrotation Xrotation
		JOINT RightLeg
		{
			OFFSET -0.038290 -0.382569 -0.008850
			CHANNELS 3 Zrotation Yrotation Xrotation
			JOINT RightFoot
			{
				OFFSET 0.015774 -0.398415 -0.042312
				CHANNELS 3 Zrotation Yrotation Xrotation
				JOINT RightToe
				{
					OFFSET -0.025372 -0.048144 0.123348
					CHANNELS 3 Zrotation Yrotation Xrotation
					End Site
					{
						OFFSET 0.000000 0.000000 0.000000
					}
				}
			}
		}
	}
	JOINT Spine
	{
		OFFSET -0.002533 0.108963 -0.026696
		CHANNELS 3 Zrotation Yrotation Xrotation
		JOINT Spine1
		{
			OFFSET 0.005487 0.135180 0.001092
			CHANNELS 3 Zrotation Yrotation Xrotation
			JOINT Spine2
			{
				OFFSET 0.001457 0.052922 0.025425
				CHANNELS 3 Zrotation Yrotation Xrotation
				JOINT Neck
				{
					OFFSET -0.002778 0.213870 -0.042857
					CHANNELS 3 Zrotation Yrotation Xrotation
					JOINT Head
					{
						OFFSET 0.005152 0.064970 0.051349
						CHANNELS 3 Zrotation Yrotation Xrotation
						End Site
						{
							OFFSET 0.000000 0.000000 0.000000
						}
					}
				}
				JOINT LeftShoulder
				{
					OFFSET 0.078845 0.121749 -0.034090
					CHANNELS 3 Zrotation Yrotation Xrotation
					JOINT LeftArm
					{
						OFFSET 0.090977 0.030469 -0.008868
						CHANNELS 3 Zrotation Yrotation Xrotation
						JOINT LeftForeArm
						{
							OFFSET 0.259612 -0.012772 -0.027456
							CHANNELS 3 Zrotation Yrotation Xrotation
							JOINT LeftHand
							{
								OFFSET 0.249234 0.008986 -0.001171
								CHANNELS 3 Zrotation Yrotation Xrotation
								End Site
								{
									OFFSET 0.000000 0.000000 0.000000
								}
							}
						}
					}
				}
				JOINT RightShoulder
				{
					OFFSET -0.081759 0.118833 -0.038615
					CHANNELS 3 Zrotation Yrotation Xrotation
					JOINT RightArm
					{
						OFFSET -0.096012 0.032551 -0.009143
						CHANNELS 3 Zrotation Yrotation Xrotation
						JOINT RightForeArm
						{
							OFFSET -0.253742 -0.013329 -0.021401
							CHANNELS 3 Zrotation Yrotation Xrotation
							JOINT RightHand
							{
								OFFSET -0.255298 0.007772 -0.005559
								CHANNELS 3 Zrotation Yrotation Xrotation
								End Site
								{
									OFFSET 0.000000 0.000000 0.000000
								}
							}
						}
					}
				}
			}
		}
	}
}
MOTION
Frames: 7
Frame Time: 0.050000
0.000000 0.952636 0.000000 -2.084711 -7.058840 0.817016 5.102560 0.372133 6.492938 0.068645 0.232157 -6.615350 3.240442 9.427712 13.458464 0.000000 0.000000 0.000000 -4.831467 0.074850 2.452499 4.349763 -0.386003 -3.569506 -3.888649 -13.599417 14.959202 0.000000 0.000000 0.000000 6.551076 -0.262863 2.143673 -6.167576 2.102884 -18.976460 -0.941551 7.869418 25.327049 9.574427 -3.117264 -27.226698 0.000000 0.000000 0.000000 -25.239050 -7.691756 1.945489 -26.893850 -2.058152 -3.662097 14.081198 -13.364144 -1.120987 0.000000 0.000000 0.000000 30.124394 -2.959135 -2.693148 33.622076 2.395555 -4.561624 -11.681815 18.025066 -0.772184 0.000000 0.000000 0.000000 
-0.000357 0.951951 0.000263 -2.192808 -7.492456 1.041766 5.733717 0.354888 6.630986 -0.904653 0.311837 -7.068824 3.398082 9.634190 13.452029 0.000000 0.000000 0.000000 -4.383670 0.079748 1.944764 3.849713 -0.352766 -3.224402 -3.960713 -13.726224 14.703827 0.000000 0.000000 0.000000 6.715766 -0.311339 2.560017 -6.580353 2.208741 -19.024483 -1.212320 9.265169 24.773700 10.081205 -2.914235 -28.892151 0.000000 0.000000 0.000000 -25.585061 -7.901839 1.613243 -29.985199 -2.960528 -3.757771 14.345761 -14.225470 -1.241597 0.000000 0.000000 0.000000 32.472664 -4.279951 -3.352870 36.331251 1.211309 -5.332782 -12.217276 20.474656 -0.899109 0.000000 0.000000 0.000000 
-0.000465 0.951277 0.000315 -2.172008 -6.950678 0.973998 5.778223 0.289690 5.683024 -0.881913 0.255883 -5.438052 3.309933 9.431005 12.713029 0.000000 0.000000 0.000000 -4.286929 0.052150 2.205092 3.892927 -0.362480 -3.891188 -4.642386 -14.952830 15.620025 0.000000 0.000000 0.000000 7.167579 -0.335314 2.683351 -7.201544 2.378491 -19.879602 -0.799115 8.567463 25.789012 10.721376 -3.188288 -29.967165 0.000000 0.000000 0.000000 -25.936329 -8.314180 2.024810 -32.986613 -2.420702 -4.352192 13.974608 -16.281717 -1.343867 0.000000 0.000000 0.000000 32.454352 -3.059671 -2.616736 39.311535 0.289508 -5.978054 -10.937071 21.203253 -0.730685 0.000000 0.000000 0.000000 
-0.000547 0.951034 0.000394 -2.262196 -6.383423 1.009799 6.325730 0.261665 5.873032 -1.528706 0.317068 -5.995049 2.971690 8.937812 12.667965 0.000000 0.000000 0.000000 -4.344441 0.046718 2.247300 4.275476 -0.388481 -4.074140 -5.014404 -15.571928 16.148865 0.000000 0.000000 0.000000 7.194052 -0.307750 2.381842 -7.625542 2.524010 -19.634768 -0.654832 8.437813 25.862073 10.402624 -2.891440 -30.525498 0.000000 0.000000 0.000000 -27.409532 -8.583834 2.005502 -34.323173 -2.809722 -4.373361 12.807554 -17.150623 -1.242205 0.000000 0.000000 0.000000 34.121836 -3.040055 -2.612707 40.832274 -0.937549 -6.607992 -9.946519 22.821733 -0.600922 0.000000 0.000000 0.000000 
-0.000715 0.951086 0.000455 -2.266962 -5.816531 0.954539 6.431141 0.219466 5.313158 -1.553213 0.294444 -5.087698 2.768061 8.608184 12.355490 0.000000 0.000000 0.000000 -4.151536 0.026391 2.266430 3.879471 -0.373276 -3.778989 -5.029683 -15.529775 16.094542 0.000000 0.000000 0.000000 6.972114 -0.321849 2.569524 -7.089555 2.377976 -19.690008 -0.919401 8.367983 25.699935 10.508679 -3.042508 -29.645669 0.000000 0.000000 0.000000 -28.389907 -8.426415 1.704727 -36.169783 -2.814764 -4.537153 11.879340 -19.336573 -1.251864 0.000000 0.000000 0.000000 34.711983 -3.297773 -2.728058 42.486784 -1.255558 -6.969583 -8.972681 23.449560 -0.414357 0.000000 0.000000 0.000000 
-0.000958 0.951116 0.000533 -2.439586 -5.548246 0.816084 6.444798 0.216385 5.355829 -1.149841 0.258677 -4.942989 2.679750 8.470063 12.226067 0.000000 0.000000 0.000000 -4.276172 0.021462 2.398730 4.289544 -0.400129 -3.637304 -4.827675 -15.190857 16.236338 0.000000 0.000000 0.000000 6.992640 -0.330265 2.667990 -7.244334 2.436773 -19.516279 -0.801511 7.859448 25.762560 10.433224 -2.998719 -29.994258 0.000000 0.000000 0.000000 -28.824245 -8.485658 1.853783 -37.946323 -3.111494 -4.715545 10.154909 -20.480868 -0.999904 0.000000 0.000000 0.000000 34.726032 -3.122262 -2.742569 44.261592 -1.116090 -7.149180 -7.936750 24.386533 -0.228259 0.000000 0.000000 0.000000 
-0.001320 0.951122 0.000566 -2.508474 -5.591462 0.671361 6.498062 0.213488 5.271787 -1.072820 0.240079 -4.478260 2.731875 8.529625 12.105152 0.000000 0.000000 0.000000 -4.125690 0.013756 2.357047 4.198073 -0.394577 -3.315770 -4.861225 -15.249918 16.224928 0.000000 0.000000 0.000000 6.947703 -0.363854 3.045572 -7.124177 2.405440 -19.430428 -0.810438 7.727478 25.525592 10.435950 -3.108980 -29.453782 0.000000 0.000000 0.000000 -29.371370 -8.580244 1.935298 -38.568983 -3.064100 -4.796179 8.947050 -21.570531 -0.824115 0.000000 0.000000 0.000000 34.980548 -2.572059 -2.434009 44.759184 -1.152974 -7.196952 -7.243894 25.040953 -0.111564 0.000000 0.000000 0.000000 
